<?xml version="1.0" encoding="utf-8"?>
<!-- Uploaded to SVGRepo https://www.svgrepo.com -->
<!DOCTYPE svg PUBLIC "-//W3C//DTD SVG 1.1//EN" "http://www.w3.org/Graphics/SVG/1.1/DTD/svg11.dtd">
<svg width="1000px" height="1000px" viewBox="0 0 1000 1000" version="1.1" xmlns="http://www.w3.org/2000/svg" xmlns:xlink="http://www.w3.org/1999/xlink" x="0px" y="0px" enable-background="new 0 0 1000 1000" xml:space="preserve">

<g><g transform="translate(0.000000,511.000000) scale(0.100000,-0.100000)"><path d="M2909.9,4964.1c-176.1-94.4-181.2-130.2-181.2-992.8v-770.7l76.6-89.3c43.4-48.5,120-102.1,165.9-117.4c48.5-15.3,89.3-35.7,89.3-40.8c0-7.6-23-56.1-51-112.3c-89.3-176.1-178.6-533.4-194-788.6C2731.2,722.5,3887.3-385.1,5216.9-247.3C6237.8-140.1,7034,633.2,7171.8,1654c51,382.8-25.5,883-183.7,1189.3l-51.1,102.1l84.2,43.4c45.9,23,119.9,79.1,165.9,125.1l84.2,79.1v775.8c0,867.7-5.1,900.9-181.2,995.3c-81.6,43.4-199.1,45.9-2090.1,45.9C3108.9,5010,2991.5,5007.4,2909.9,4964.1z M4122.1,2583c732.4-153.1,1531.2-119.9,2212.7,97c234.8,74,214.4,86.8,311.3-209.3c288.4-865.2-168.4-1829.8-1020.8-2159.1c-512.9-199.1-1105-137.8-1564.4,160.8c-712,464.5-987.7,1383.2-648.2,2166.7l51,119.9l214.4-63.8C3792.9,2662.1,3994.5,2611,4122.1,2583z"/><path d="M2241.2-461.7c-270.5-71.4-533.4-308.8-640.6-571.7l-58.7-145.5l-7.7-1804.3l-7.7-1806.9H5000h3473.4l-7.6,1806.9l-7.7,1804.3l-58.7,145.5c-84.2,206.7-275.6,408.3-484.9,510.4l-171,84.2L5051-433.6C2971.1-431.1,2333.1-436.2,2241.2-461.7z M3542.8-859.8c247.6-449.1,615.1-809,967.2-946.8c214.4-84.2,561.5-97,791.2-25.5c421.1,127.6,852.4,507.9,1145.9,1010.6l97,165.9h262.9h260.3l-86.8-173.5c-145.4-288.4-393-635.5-612.5-857.5c-303.7-311.3-594.6-492.6-954.5-602.3l-183.8-56.2v-252.6v-252.7h293.5h293.5v-229.7v-229.7h-293.5h-293.5v-599.7v-599.7H5000h-229.7v599.7v599.7h-308.8h-306.3l7.7,229.7l7.7,229.7h301.1h298.6v250.1v247.6l-171,33.2c-492.5,94.4-995.3,482.4-1367.9,1064.2c-120,191.4-298.6,530.8-298.6,574.2c0,15.3,94.4,25.5,250.1,25.5l247.6-2.5L3542.8-859.8z"/></g></g>
</svg>