<?xml version="1.0" encoding="iso-8859-1"?>
<!-- Generator: Adobe Illustrator 17.1.0, SVG Export Plug-In . SVG Version: 6.00 Build 0)  -->
<!DOCTYPE svg PUBLIC "-//W3C//DTD SVG 1.1//EN" "http://www.w3.org/Graphics/SVG/1.1/DTD/svg11.dtd">
<svg version="1.1" id="Capa_1" xmlns="http://www.w3.org/2000/svg" xmlns:xlink="http://www.w3.org/1999/xlink" x="0px" y="0px"
	 viewBox="0 0 203.267 203.267" style="enable-background:new 0 0 203.267 203.267;" xml:space="preserve">
<path d="M129.831,73.637l0.429,18.772l-10.629-1.658l4.866-19.007C126.196,72.542,127.98,73.182,129.831,73.637z M136.63,64.459
	c0.515,0,1.037-0.021,1.554-0.063c5.039-0.408,9.618-2.754,12.893-6.605c3.275-3.852,4.854-8.748,4.446-13.787
	c-0.79-9.758-9.065-17.401-18.84-17.401c-0.515,0-1.038,0.021-1.554,0.063c-10.402,0.842-18.18,9.99-17.339,20.393
	C118.581,56.816,126.856,64.459,136.63,64.459z M139.848,74.274l0.438,19.171c0,0.022,0.001,0.045,0.001,0.068l0.141,6.152
	l13.902-1.913l-5.492-25.971C146.03,73.081,143.003,73.926,139.848,74.274z M181.485,5v193.267c0,2.761-2.238,5-5,5H26.782
	c-2.762,0-5-2.239-5-5V5c0-2.761,2.238-5,5-5h149.703C179.247,0,181.485,2.239,181.485,5z M41.317,31.289c0,2.761,2.238,5,5,5
	h45.857c2.762,0,5-2.239,5-5s-2.238-5-5-5H46.317C43.555,26.289,41.317,28.528,41.317,31.289z M41.317,51.37c0,2.761,2.238,5,5,5
	h45.857c2.762,0,5-2.239,5-5s-2.238-5-5-5H46.317C43.555,46.37,41.317,48.609,41.317,51.37z M41.317,71.452c0,2.761,2.238,5,5,5
	h45.857c2.762,0,5-2.239,5-5s-2.238-5-5-5H46.317C43.555,66.452,41.317,68.69,41.317,71.452z M162.485,173.512c0-2.761-2.238-5-5-5
	H46.317c-2.762,0-5,2.239-5,5s2.238,5,5,5h111.168C160.247,178.512,162.485,176.273,162.485,173.512z M46.317,157.5h71.882
	c2.762,0,5-2.239,5-5s-2.238-5-5-5H46.317c-2.762,0-5,2.239-5,5S43.555,157.5,46.317,157.5z M162.485,131.488c0-2.761-2.238-5-5-5
	H46.317c-2.762,0-5,2.239-5,5s2.238,5,5,5h111.168C160.247,136.488,162.485,134.249,162.485,131.488z M157.705,65.375
	c0.338-0.359,0.669-0.728,0.991-1.106c5.005-5.887,7.418-13.37,6.794-21.071c-1.207-14.913-13.86-26.595-28.807-26.595
	c-0.783,0-1.577,0.032-2.36,0.095c-15.897,1.287-27.785,15.269-26.499,31.167c0.552,6.814,3.498,12.949,7.956,17.608l-7.202,28.13
	c-0.35,1.365-0.106,2.815,0.669,3.992s2.012,1.972,3.404,2.189l17.841,2.783l0.066,2.929c0.033,1.425,0.672,2.768,1.757,3.692
	c0.91,0.775,2.062,1.194,3.242,1.194c0.227,0,0.454-0.016,0.682-0.047l24.776-3.409c1.375-0.189,2.61-0.941,3.408-2.077
	c0.799-1.136,1.089-2.552,0.802-3.911L157.705,65.375z"/>
<g>
</g>
<g>
</g>
<g>
</g>
<g>
</g>
<g>
</g>
<g>
</g>
<g>
</g>
<g>
</g>
<g>
</g>
<g>
</g>
<g>
</g>
<g>
</g>
<g>
</g>
<g>
</g>
<g>
</g>
</svg>
