<?xml version="1.0" encoding="iso-8859-1"?>
<!-- Generator: Adobe Illustrator 19.0.0, SVG Export Plug-In . SVG Version: 6.00 Build 0)  -->
<svg version="1.1" id="Capa_1" xmlns="http://www.w3.org/2000/svg" xmlns:xlink="http://www.w3.org/1999/xlink" x="0px" y="0px"
	 viewBox="0 0 55 55" style="enable-background:new 0 0 55 55;" xml:space="preserve">
<g>
	<path d="M37.094,16c4.411,0,8-3.589,8-8s-3.589-8-8-8s-8,3.589-8,8S32.682,16,37.094,16z"/>
	<path d="M48.071,24.118c-0.135-1.374-0.876-2.606-2.033-3.38c-1.755-1.173-4.344-0.852-5.894,0.698l-3.622,3.622l-1.52-1.52
		c0.416-2.884-0.651-5.91-3.085-7.86c-1.495-1.199-3.379-1.858-5.303-1.858c-2.605,0-5.027,1.157-6.642,3.171L8.769,30.784
		c-2.931,3.658-2.339,9.018,1.318,11.948c0.602,0.482,1.527,0.914,2.75,1.284c1.599,0.482,3.04,1.188,4.285,2.097L18.338,47h-6.612
		c-1.98,0-3.685,1.346-4.052,3.2c-0.236,1.188,0.065,2.403,0.828,3.333C9.267,54.465,10.394,55,11.594,55h19
		c0.088,0,0.173-0.009,0.305-0.025c0.137-0.01,0.272-0.021,0.411-0.046c0.098-0.018,0.19-0.042,0.327-0.081
		c0.146-0.04,0.291-0.081,0.441-0.141c0.065-0.026,0.129-0.057,0.234-0.109c0.162-0.077,0.32-0.16,0.468-0.257
		c0.046-0.029,0.089-0.062,0.139-0.101c0.168-0.119,0.329-0.249,0.484-0.402l0.13-0.139c0.103-0.106,0.204-0.215,0.305-0.354
		l0.122-0.202c0.118-0.187,0.226-0.377,0.302-0.557c0.025-0.057,0.046-0.115,0.061-0.164c0.073-0.194,0.139-0.388,0.18-0.585
		c0.015-0.072,0.024-0.146,0.041-0.289c0.02-0.14,0.037-0.28,0.043-0.42L34.594,51c0-0.089-0.009-0.176-0.027-0.325
		c-0.009-0.126-0.02-0.251-0.041-0.369c-0.021-0.127-0.055-0.249-0.101-0.405c-0.033-0.121-0.068-0.241-0.113-0.355
		c-0.038-0.096-0.082-0.188-0.146-0.316c-0.066-0.134-0.134-0.265-0.218-0.395c-0.045-0.069-0.093-0.133-0.171-0.235
		c-0.098-0.129-0.197-0.255-0.308-0.37c-0.06-0.062-0.124-0.119-0.188-0.175l-0.089-0.08c-0.073-0.071-0.147-0.139-0.25-0.214
		l-8.542-5.99c-0.442-0.31-0.727-0.774-0.801-1.308c-0.075-0.536,0.072-1.064,0.416-1.486l6.021-7.414l3.032,3.032
		c0.905,0.906,2.151,1.372,3.454,1.323c0.071,0.003,0.143,0.004,0.213,0.004c0,0,0,0,0.001,0c1.233,0,2.384-0.472,3.239-1.328
		l6.777-6.776C47.726,26.847,48.207,25.498,48.071,24.118z"/>
</g>
<g>
</g>
<g>
</g>
<g>
</g>
<g>
</g>
<g>
</g>
<g>
</g>
<g>
</g>
<g>
</g>
<g>
</g>
<g>
</g>
<g>
</g>
<g>
</g>
<g>
</g>
<g>
</g>
<g>
</g>
</svg>
