<?xml version="1.0" encoding="iso-8859-1"?>
<!-- Generator: Adobe Illustrator 18.0.0, SVG Export Plug-In . SVG Version: 6.00 Build 0)  -->
<!DOCTYPE svg PUBLIC "-//W3C//DTD SVG 1.1//EN" "http://www.w3.org/Graphics/SVG/1.1/DTD/svg11.dtd">
<svg version="1.1" id="Capa_1" xmlns="http://www.w3.org/2000/svg" xmlns:xlink="http://www.w3.org/1999/xlink" x="0px" y="0px"
	 viewBox="0 0 459 459" style="enable-background:new 0 0 459 459;" xml:space="preserve">
<g>
	<path d="M104.609,200.682c0.067,0.001,0.132,0.001,0.2,0.001c17.448,0,31.467-14.137,31.574-31.383
		c0.108-17.44-13.942-31.666-31.382-31.774c-0.067,0-0.133-0.001-0.2-0.001c-17.348,0.001-31.466,14.01-31.574,31.383
		C73.119,186.348,87.169,200.574,104.609,200.682z"/>
	<path d="M444,97.5c-8.284,0-15,6.716-15,15v82.433c-13.533,4.036-27.135,7.651-40.471,10.818l-45.183-67.017
		c-3.168-4.699-8.464-7.515-14.13-7.515c-0.005,0-0.011,0-0.017,0c-5.672,0.005-10.97,2.833-14.132,7.543
		c-16.026,23.872-10.858,16.175-24.568,36.596l-124.237-4.597c-4.54-0.167-8.917,1.517-12.162,4.621
		c-3.263,3.121-5.123,7.43-5.156,11.946l-0.24,32.631c-28.342-3.553-56.308-8.827-83.027-15.357
		c-13.19-3.224-25.168-6.524-35.678-9.658V112.5c0-8.284-6.716-15-15-15s-15,6.716-15,15v244.409c0,2.535,2.055,4.591,4.591,4.591
		h20.818c2.535,0,4.591-2.055,4.591-4.591V217.988c45.396,31.824,117.849,70.995,199.487,70.995
		c71.547,0,141.413-30.276,199.513-71.012v138.938c0,2.535,2.055,4.591,4.591,4.591h20.818c2.535,0,4.591-2.055,4.591-4.591V112.5
		C459,104.216,452.284,97.5,444,97.5z M175.249,222.763l-12.375-12.783l20.96,13.465
		C180.954,223.235,178.093,223.008,175.249,222.763z M262.493,224.247l9.833-4.312c6.788-2.975,9.91-10.908,6.919-17.726
		c-2.967-6.77-10.913-9.907-17.726-6.919l-42.625,18.691l-43.055-27.659l42.382,13.85l38.111-16.712
		c13.41-5.88,28.931,0.307,34.743,13.561c3.674,8.378,2.69,17.915-2.253,25.287C280.21,223.115,271.428,223.771,262.493,224.247z
		 M300.861,221.074c19.26-28.69,19.871-29.599,28.386-42.285l23.313,34.579C335.589,216.529,318.249,219.135,300.861,221.074z"/>
</g>
<g>
</g>
<g>
</g>
<g>
</g>
<g>
</g>
<g>
</g>
<g>
</g>
<g>
</g>
<g>
</g>
<g>
</g>
<g>
</g>
<g>
</g>
<g>
</g>
<g>
</g>
<g>
</g>
<g>
</g>
</svg>
